<?xml version="1.0" encoding="UTF-8"?>
<svg width="500" height="250" viewBox="0 0 500 250" xmlns="http://www.w3.org/2000/svg">
 <rect width="500" height="250" fill="black"/>
<rect x="30" y="93" width="4" height="137" fill="#ff0000"/>
<rect x="38" y="38" width="4" height="192" fill="#ff0000"/>
<rect x="46" y="102" width="4" height="128" fill="#ff0000"/>
<rect x="54" y="78" width="4" height="152" fill="#ff0000"/>
<rect x="62" y="95" width="4" height="135" fill="#ff0000"/>
<rect x="70" y="47" width="4" height="183" fill="#ff0000"/>
<rect x="78" y="53" width="4" height="177" fill="#ff0000"/>
<rect x="86" y="50" width="4" height="180" fill="#ff0000"/>
<rect x="94" y="62" width="4" height="168" fill="#ff0000"/>
<rect x="102" y="84" width="4" height="146" fill="#ff0000"/>
<rect x="110" y="98" width="4" height="132" fill="#ff0000"/>
<rect x="118" y="48" width="4" height="182" fill="#ff0000"/>
<rect x="126" y="107" width="4" height="123" fill="#ff0000"/>
<rect x="134" y="61" width="4" height="169" fill="#ff0000"/>
<rect x="142" y="55" width="4" height="175" fill="#ff0000"/>
<rect x="150" y="33" width="4" height="197" fill="#ff0000"/>
<rect x="158" y="110" width="4" height="120" fill="#ff0000"/>
<rect x="166" y="53" width="4" height="177" fill="#ff0000"/>
<rect x="174" y="76" width="4" height="154" fill="#ff0000"/>
<rect x="182" y="81" width="4" height="149" fill="#ff0000"/>
<rect x="190" y="35" width="4" height="195" fill="#ff0000"/>
<rect x="198" y="97" width="4" height="133" fill="#ff0000"/>
<rect x="206" y="70" width="4" height="160" fill="#ff0000"/>
<rect x="214" y="107" width="4" height="123" fill="#ff0000"/>
<rect x="222" y="108" width="4" height="122" fill="#ff0000"/>
<rect x="230" y="107" width="4" height="123" fill="#ff0000"/>
<rect x="238" y="41" width="4" height="189" fill="#ff0000"/>
<rect x="246" y="109" width="4" height="121" fill="#ff0000"/>
<rect x="254" y="62" width="4" height="168" fill="#ff0000"/>
<rect x="262" y="83" width="4" height="147" fill="#ff0000"/>
<rect x="270" y="56" width="4" height="174" fill="#ff0000"/>
<rect x="278" y="107" width="4" height="123" fill="#ff0000"/>
<rect x="286" y="43" width="4" height="187" fill="#ff0000"/>
<rect x="294" y="82" width="4" height="148" fill="#ff0000"/>
<rect x="302" y="54" width="4" height="176" fill="#ff0000"/>
<rect x="310" y="47" width="4" height="183" fill="#ff0000"/>
<rect x="318" y="40" width="4" height="190" fill="#ff0000"/>
<rect x="326" y="81" width="4" height="149" fill="#ff0000"/>
<rect x="334" y="66" width="4" height="164" fill="#ff0000"/>
<rect x="342" y="81" width="4" height="149" fill="#ff0000"/>
<rect x="350" y="82" width="4" height="148" fill="#ff0000"/>
<rect x="358" y="52" width="4" height="178" fill="#ff0000"/>
<rect x="366" y="73" width="4" height="157" fill="#ff0000"/>
<rect x="374" y="108" width="4" height="122" fill="#ff0000"/>
<rect x="382" y="57" width="4" height="173" fill="#ff0000"/>
<rect x="390" y="39" width="4" height="191" fill="#ff0000"/>
<rect x="398" y="98" width="4" height="132" fill="#ff0000"/>
<rect x="406" y="87" width="4" height="143" fill="#ff0000"/>
<rect x="414" y="30" width="4" height="200" fill="#ff0000"/>
<rect x="422" y="73" width="4" height="157" fill="#ff0000"/>
</svg>